<?xml version="1.0" standalone="no"?>
<!DOCTYPE svg PUBLIC "-//W3C//DTD SVG 20010904//EN"
 "http://www.w3.org/TR/2001/REC-SVG-20010904/DTD/svg10.dtd">
<svg version="1.0" xmlns="http://www.w3.org/2000/svg"
 width="1024.000000pt" height="1024.000000pt" viewBox="0 0 1024.000000 1024.000000"
 preserveAspectRatio="xMidYMid meet">

<g transform="translate(0.000000,1024.000000) scale(0.100000,-0.100000)"
fill="#000000" stroke="none">
<path d="M0 5120 l0 -5120 5120 0 5120 0 0 5120 0 5120 -5120 0 -5120 0 0
-5120z m4324 3518 c8 -13 21 -59 29 -103 8 -44 31 -174 53 -288 40 -223 40
-239 -9 -245 -28 -3 -57 28 -57 63 0 11 -23 140 -51 288 -50 258 -51 268 -34
287 24 26 51 25 69 -2z m826 -7 c55 -29 94 -91 93 -149 -3 -196 -273 -235
-333 -49 -14 43 -2 109 27 153 38 59 145 82 213 45z m1352 -508 c-161 -196
-259 -313 -488 -584 -146 -174 -857 -1038 -1037 -1261 -70 -87 -127 -161 -127
-166 0 -9 23 -7 425 42 279 33 599 68 754 82 51 5 72 3 70 -4 -2 -6 -41 -52
-87 -101 -46 -50 -100 -110 -120 -135 -20 -24 -156 -178 -302 -342 -146 -163
-285 -321 -310 -349 -68 -78 -366 -410 -440 -490 -36 -39 -82 -90 -103 -113
l-38 -42 561 0 561 0 -108 -127 c-59 -71 -150 -177 -203 -238 -88 -101 -200
-234 -585 -694 -77 -92 -216 -261 -310 -376 -93 -114 -228 -278 -300 -364 -71
-86 -183 -223 -249 -304 -65 -81 -119 -147 -121 -147 -3 0 131 294 197 430 22
47 85 180 138 295 54 116 140 300 193 410 207 437 297 626 356 746 33 70 61
130 61 133 0 3 -173 6 -385 6 -212 0 -385 3 -385 7 0 3 23 38 52 77 28 39 90
125 136 191 127 180 637 893 679 949 l37 49 -65 -7 c-35 -3 -102 -8 -149 -11
-47 -3 -96 -8 -110 -10 -14 -3 -65 -7 -115 -10 -49 -4 -106 -8 -125 -10 -19
-2 -87 -8 -150 -14 -63 -6 -136 -13 -162 -16 -28 -3 -48 -2 -48 4 0 5 127 279
281 608 155 329 292 621 304 650 13 29 137 293 276 588 l252 535 39 11 c47 12
206 49 743 171 661 150 680 154 684 152 2 -2 -78 -101 -177 -221z m-2775 176
c138 -52 128 -257 -14 -299 -75 -23 -152 11 -188 81 -21 40 -19 117 5 156 36
60 127 89 197 62z m922 -615 c-98 -207 -361 -770 -451 -964 -50 -107 -96 -198
-102 -202 -13 -9 -1346 -11 -1346 -2 0 14 99 157 168 244 344 430 816 756
1341 924 124 40 429 117 439 111 1 -1 -21 -51 -49 -111z m-1818 -21 c81 -68
75 -188 -12 -235 -89 -48 -193 8 -205 109 -14 115 130 199 217 126z m4670 4
c76 -50 89 -155 27 -216 -55 -54 -152 -55 -200 -2 -87 97 -26 240 103 241 21
0 50 -9 70 -23z m-1051 -281 c0 -8 -7 -16 -15 -20 -12 -4 -13 -2 -2 14 14 24
17 25 17 6z m69 -72 c-7 -13 -19 -24 -28 -24 -11 0 -9 4 7 16 17 11 21 22 16
42 -5 24 -4 25 6 8 10 -14 9 -24 -1 -42z m-119 25 c-10 -17 -9 -20 7 -17 10 2
24 12 31 23 10 16 12 16 8 3 -3 -10 0 -18 6 -18 7 0 3 -6 -8 -14 -10 -8 -20
-11 -22 -7 -1 5 -14 6 -28 3 -26 -5 -26 -5 -9 22 20 31 30 35 15 5z m74 5 c3
-8 2 -12 -4 -9 -6 3 -10 10 -10 16 0 14 7 11 14 -7z m26 6 c0 -5 -2 -10 -4
-10 -3 0 -8 5 -11 10 -3 6 -1 10 4 10 6 0 11 -4 11 -10z m-157 -17 c-3 -7 1
-13 8 -13 7 0 9 -3 6 -6 -7 -7 -37 14 -37 26 0 3 6 7 14 7 8 0 12 -6 9 -14z
m227 11 c0 -8 -19 -13 -24 -6 -3 5 1 9 9 9 8 0 15 -2 15 -3z m10 -39 c0 6 9
11 20 11 11 0 20 -4 20 -8 0 -4 -4 -8 -9 -8 -6 0 -8 -9 -6 -20 2 -11 0 -18 -4
-15 -12 7 -23 -24 -14 -38 4 -7 9 -3 13 8 6 17 8 16 12 -7 3 -15 2 -26 -1 -25
-7 2 -11 -7 -11 -24 0 -6 7 -4 15 4 9 9 13 27 10 47 -5 42 3 64 20 50 7 -6 19
-8 26 -5 35 13 336 -254 493 -436 82 -96 236 -306 236 -323 0 -3 -147 -6 -327
-6 l-326 0 21 23 c58 61 31 67 -330 67 -182 0 -307 4 -299 9 8 5 10 14 6 22
-6 9 -3 11 8 6 19 -7 22 5 7 34 -6 11 -7 19 -1 19 5 0 12 -7 15 -16 5 -14 8
-14 21 0 8 8 15 19 15 25 0 6 5 11 10 11 6 0 10 7 10 16 0 8 5 12 10 9 6 -3
10 1 10 9 0 9 4 16 10 16 5 0 20 16 33 35 13 19 27 32 30 28 6 -6 11 11 8 30
0 4 5 6 11 5 7 -2 12 3 10 10 -1 6 3 12 9 12 6 0 8 9 4 23 -5 17 -4 19 4 7 10
-13 12 -13 20 0 5 8 7 19 4 25 -4 5 -3 7 2 3 12 -11 38 21 31 39 -5 13 -4 14
9 3 14 -11 19 -7 16 13 0 4 4 7 9 7 6 0 10 5 10 11 0 6 11 20 26 31 14 11 23
23 20 25 -3 3 9 19 25 34 25 24 30 34 25 57 -6 24 -5 25 7 10 11 -14 13 -12
13 18 0 19 -4 34 -9 34 -13 0 -4 44 13 57 15 12 13 14 -12 17 -6 0 -13 8 -15
16 -4 13 -3 13 6 0 6 -8 11 -10 11 -5z m-115 -5 c3 -5 1 -10 -4 -10 -6 0 -11
5 -11 10 0 6 2 10 4 10 3 0 8 -4 11 -10z m-85 -10 c-8 -5 -19 -10 -25 -10 -5
0 -3 5 5 10 8 5 20 10 25 10 6 0 3 -5 -5 -10z m-76 -26 c3 -8 2 -12 -4 -9 -6
3 -10 10 -10 16 0 14 7 11 14 -7z m252 -13 c-1 -30 -23 -33 -23 -3 0 13 12 30
23 32 1 0 1 -13 0 -29z m-206 9 c0 -5 -5 -10 -11 -10 -5 0 -7 5 -4 10 3 6 8
10 11 10 2 0 4 -4 4 -10z m27 -12 c-3 -8 -6 -5 -6 6 -1 11 2 17 5 13 3 -3 4
-12 1 -19z m124 8 c-9 -11 -8 -15 5 -20 13 -5 15 -9 6 -18 -16 -16 -15 -33 1
-20 8 7 16 6 24 -3 7 -8 9 -16 4 -20 -5 -3 -11 0 -13 7 -2 6 -9 8 -16 4 -9 -5
-9 -11 0 -26 8 -13 16 -16 23 -10 8 6 12 5 12 -4 0 -19 -25 -13 -41 10 -14 20
-16 25 -16 46 0 6 -9 2 -20 -10 -25 -26 -26 -26 -34 -7 -3 8 -2 14 2 14 19 -3
33 2 27 10 -3 6 4 8 15 6 14 -3 20 0 17 8 -3 7 -10 11 -16 10 -15 -4 -14 3 5
21 19 20 31 21 15 2z m-207 -15 c4 -5 1 -11 -6 -13 -9 -3 -8 -12 5 -32 10 -14
22 -24 27 -21 6 4 10 2 10 -3 0 -17 -46 -10 -47 7 -1 9 -5 28 -9 44 -6 26 8
39 20 18z m116 -1 c0 -5 -2 -10 -4 -10 -3 0 -8 5 -11 10 -3 6 -1 10 4 10 6 0
11 -4 11 -10z m-59 -27 c-12 -20 -14 -14 -5 12 4 9 9 14 11 11 3 -2 0 -13 -6
-23z m-91 -7 c0 -3 -4 -8 -10 -11 -5 -3 -10 -1 -10 4 0 6 5 11 10 11 6 0 10
-2 10 -4z m140 -6 c0 -5 -7 -6 -17 -3 -11 4 -14 3 -9 -5 4 -7 2 -12 -4 -12 -6
0 -9 -3 -7 -7 7 -12 -41 -54 -48 -43 -3 6 -1 10 5 10 6 0 20 16 31 35 19 32
49 48 49 25z m-175 -20 c3 -5 1 -10 -4 -10 -6 0 -11 5 -11 10 0 6 2 10 4 10 3
0 8 -4 11 -10z m180 -10 c-3 -5 -12 -10 -18 -10 -7 0 -6 4 3 10 19 12 23 12
15 0z m-105 -35 c0 -3 -9 -14 -20 -25 -16 -16 -20 -17 -20 -5 0 9 7 18 15 21
14 6 13 8 -2 21 -16 13 -16 13 5 3 12 -6 22 -13 22 -15z m180 15 c0 -5 -5 -10
-11 -10 -5 0 -7 5 -4 10 3 6 8 10 11 10 2 0 4 -4 4 -10z m-260 -4 c0 -2 -7 -7
-16 -10 -8 -3 -12 -2 -9 4 6 10 25 14 25 6z m210 -16 c0 -5 -4 -10 -10 -10 -5
0 -10 5 -10 10 0 6 5 10 10 10 6 0 10 -4 10 -10z m110 -15 c0 -11 -31 -11 -39
-1 -9 10 -6 12 14 8 14 -2 25 -6 25 -7z m-64 -6 c3 -6 1 -16 -6 -22 -9 -9 -11
-8 -8 3 2 8 -3 14 -10 12 -8 -1 -11 2 -7 8 8 13 22 13 31 -1z m-146 -3 c0 -2
-7 -7 -16 -10 -8 -3 -12 -2 -9 4 6 10 25 14 25 6z m-132 -20 c6 1 13 2 15 4
11 9 37 5 41 -6 4 -11 2 -12 -14 -4 -13 7 -21 7 -25 0 -4 -6 -11 -8 -16 -5 -5
4 -9 -2 -9 -11 0 -16 -15 -11 -15 4 0 4 -4 14 -10 22 -7 12 -6 13 6 4 8 -5 20
-9 27 -8z m162 3 c0 -5 -5 -7 -12 -3 -8 5 -9 2 -5 -9 4 -10 1 -17 -6 -17 -7 0
-1 -6 13 -13 17 -9 27 -10 32 -3 6 8 8 8 8 0 0 -5 -6 -18 -13 -29 -11 -14 -16
-15 -22 -5 -5 9 -4 11 3 6 7 -4 12 -2 12 4 0 6 -12 15 -26 20 -14 6 -23 13
-21 17 2 5 7 16 10 26 7 18 27 24 27 6z m63 -9 c-3 -12 -8 -19 -11 -16 -5 6 5
36 12 36 2 0 2 -9 -1 -20z m-303 -16 c-1 -4 4 -10 10 -14 14 -9 5 -30 -13 -30
-8 0 -8 3 1 9 10 6 10 10 -2 20 -8 7 -12 20 -9 29 6 15 17 3 13 -14z m27 4
c-3 -8 -6 -5 -6 6 -1 11 2 17 5 13 3 -3 4 -12 1 -19z m122 -16 c-10 -17 -17
-19 -32 -10 -15 7 -22 7 -29 -3 -8 -11 -9 -11 -5 1 3 10 14 14 31 12 17 -2 29
3 32 13 4 9 8 14 11 11 2 -2 -1 -13 -8 -24z m41 24 c0 -3 -4 -8 -10 -11 -5 -3
-10 -1 -10 4 0 6 5 11 10 11 6 0 10 -2 10 -4z m-140 -51 c14 -19 14 -19 -2 -6
-10 7 -18 18 -18 24 0 6 1 8 3 6 1 -2 9 -13 17 -24z m140 15 c0 -5 -5 -10 -11
-10 -5 0 -7 5 -4 10 3 6 8 10 11 10 2 0 4 -4 4 -10z m140 -20 c-12 -22 -21
-26 -17 -7 2 10 17 26 25 27 1 0 -2 -9 -8 -20z m-200 -4 c0 -3 -4 -8 -10 -11
-5 -3 -10 -1 -10 4 0 6 5 11 10 11 6 0 10 -2 10 -4z m28 -21 c-3 -3 -9 2 -12
12 -6 14 -5 15 5 6 7 -7 10 -15 7 -18z m-231 8 c-4 -3 -3 -11 3 -17 6 -8 3
-12 -10 -12 -15 0 -16 4 -9 18 5 10 13 18 16 18 3 0 3 -3 0 -7z m173 -16 c0
-7 -4 -6 -10 3 -8 12 -10 12 -10 1 0 -8 -3 -12 -6 -8 -9 9 6 28 17 22 5 -4 9
-12 9 -18z m-105 -6 c-3 -6 -11 -11 -17 -11 -6 0 -6 6 2 15 14 17 26 13 15 -4z
m42 -6 c-9 -8 -18 -11 -22 -6 -3 6 3 14 12 20 24 13 29 6 10 -14z m121 -11 c4
2 9 -5 9 -17 2 -15 0 -18 -6 -9 -5 8 -12 13 -17 13 -4 -1 -9 11 -11 26 -2 27
-2 27 7 5 5 -13 13 -21 18 -18z m127 25 c11 -16 1 -19 -13 -3 -7 8 -8 14 -3
14 5 0 13 -5 16 -11z m-23 -13 c7 4 8 2 4 -4 -4 -6 -13 -9 -21 -6 -8 4 -12 11
-8 17 5 8 8 7 11 -1 2 -7 9 -9 14 -6z m-45 -18 c-3 -12 -2 -29 3 -38 6 -12 5
-17 -6 -17 -8 0 -14 5 -13 11 3 24 -2 37 -11 31 -6 -3 -7 1 -3 10 5 13 7 14
14 3 7 -10 9 -9 9 5 0 9 3 17 6 17 4 0 4 -10 1 -22z m-150 -3 c0 -8 -4 -12 -9
-9 -5 3 -6 10 -3 15 9 13 12 11 12 -6z m-52 -4 c3 -5 1 -12 -5 -16 -5 -3 -10
1 -10 9 0 18 6 21 15 7z m22 -26 c0 -8 -4 -12 -9 -9 -5 3 -6 10 -3 15 9 13 12
11 12 -6z m-42 -9 c7 3 16 1 20 -5 4 -7 0 -8 -11 -4 -11 4 -15 3 -10 -5 3 -6
1 -14 -5 -18 -7 -4 -9 -3 -5 4 3 6 2 13 -4 17 -5 3 -10 12 -9 18 0 9 2 9 5 0
3 -7 11 -10 19 -7z m150 5 c-9 -8 -36 -10 -30 -2 2 4 11 8 20 8 8 0 13 -3 10
-6z m-4002 -32 c13 -6 31 -23 40 -39 42 -70 -2 -150 -83 -150 -33 0 -48 6 -71
29 -77 78 13 206 114 160z m3730 -9 c10 -12 9 -12 -5 -2 -11 9 -18 10 -23 2
-3 -5 -12 -10 -18 -9 -9 0 -8 2 1 6 6 2 10 8 7 13 -8 14 24 5 38 -10z m224
-17 c-11 -11 -17 -13 -17 -5 0 7 5 12 11 12 6 0 8 7 4 18 -5 14 -4 15 6 4 11
-10 10 -15 -4 -29z m93 22 c0 -8 -2 -15 -4 -15 -2 0 -6 7 -10 15 -3 8 -1 15 4
15 6 0 10 -7 10 -15z m1683 -26 c38 -41 37 -90 -2 -130 -49 -49 -125 -38 -157
23 -20 38 -12 87 19 115 44 41 97 38 140 -8z m-1937 19 c5 -8 2 -9 -9 -5 -10
4 -17 1 -17 -5 0 -6 -3 -9 -6 -5 -7 7 4 27 16 27 5 0 12 -5 16 -12z m30 -13
c1 -14 -2 -25 -6 -25 -6 0 -7 36 -1 48 4 7 6 -1 7 -23z m48 10 c-4 -8 -11 -15
-16 -15 -6 0 -5 6 2 15 7 8 14 15 16 15 2 0 1 -7 -2 -15z m41 -13 c-3 -3 -11
0 -18 7 -9 10 -8 11 6 5 10 -3 15 -9 12 -12z m-239 -27 c-6 -18 -26 -11 -26 8
0 7 4 6 11 -3 9 -12 10 -10 5 9 -3 17 -2 21 6 13 6 -6 8 -18 4 -27z m103 -5
c-14 -9 -29 -4 -29 10 0 5 7 7 15 4 9 -4 15 0 16 7 0 12 1 12 6 0 3 -7 -1 -17
-8 -21z m75 3 c-17 -18 -58 -28 -48 -12 2 4 11 6 18 3 7 -3 16 2 19 10 4 9 11
16 17 16 6 0 4 -8 -6 -17z m59 0 c-4 -10 -9 -11 -19 -2 -19 15 -18 18 5 16 11
-1 17 -6 14 -14z m122 -2 c3 -5 0 -13 -6 -17 -8 -5 -9 -3 -4 6 6 10 4 12 -9 7
-10 -4 -15 -3 -11 3 8 13 22 13 30 1z m-390 -39 c-3 -3 -11 0 -18 7 -9 10 -8
11 6 5 10 -3 15 -9 12 -12z m252 -7 c-15 -16 -19 -13 -11 9 3 9 10 13 15 10 5
-3 3 -11 -4 -19z m83 10 c0 -12 -19 -12 -23 0 -4 9 -1 12 9 8 7 -3 14 -7 14
-8z m25 -4 c3 -5 1 -12 -5 -16 -5 -3 -10 1 -10 9 0 18 6 21 15 7z m-313 -53
c-12 -18 -22 -28 -22 -23 0 6 7 21 16 33 8 12 12 28 8 35 -5 9 -4 9 6 0 10 -9
9 -18 -8 -45z m121 32 c-3 -11 -10 -23 -16 -27 -5 -3 -8 -2 -5 3 3 5 8 17 11
27 9 24 16 22 10 -3z m-183 -8 c0 -5 -7 -9 -15 -9 -8 0 -12 4 -9 9 3 4 9 8 15
8 5 0 9 -4 9 -8z m221 -11 c-8 -5 -10 -14 -6 -22 6 -11 5 -11 -5 -2 -14 12 -6
33 13 33 8 0 7 -3 -2 -9z m83 -32 c-10 -11 -20 -17 -23 -13 -3 3 2 10 12 16
15 8 16 12 5 26 -12 15 -11 16 5 3 16 -13 16 -15 1 -32z m-345 17 c7 -8 8 -17
3 -20 -6 -3 -12 3 -15 14 -6 24 -4 25 12 6z m34 -21 c-7 -21 -12 -19 -10 4 0
11 5 18 9 15 4 -3 5 -11 1 -19z m171 0 c-4 -8 -8 -15 -10 -15 -2 0 -4 7 -4 15
0 8 4 15 10 15 5 0 7 -7 4 -15z m-230 -11 c4 -9 4 -19 1 -22 -3 -3 -5 0 -5 7
0 7 -4 10 -8 7 -5 -3 -9 1 -9 9 0 20 13 19 21 -1z m336 12 c0 -3 -4 -8 -10
-11 -5 -3 -10 -1 -10 4 0 6 5 11 10 11 6 0 10 -2 10 -4z m-25 -26 c3 -6 -1 -7
-9 -4 -18 7 -21 14 -7 14 6 0 13 -4 16 -10z m-195 -46 c0 5 6 3 14 -3 9 -8 16
-8 20 -2 7 11 36 4 36 -10 0 -4 -6 -6 -14 -3 -7 3 -17 -3 -20 -13 -7 -16 -9
-15 -21 7 -8 14 -14 19 -15 11 0 -11 -4 -9 -14 5 -8 11 -18 15 -23 10 -4 -5
-2 -11 5 -13 20 -8 14 -22 -8 -16 -15 4 -17 9 -10 23 6 10 7 27 3 37 -3 11 5
6 20 -12 15 -16 27 -26 27 -21z m90 21 c-7 -9 -15 -13 -17 -11 -6 6 20 36 26
30 2 -2 -2 -10 -9 -19z m40 21 c0 -3 -4 -8 -10 -11 -5 -3 -10 -1 -10 4 0 6 5
11 10 11 6 0 10 -2 10 -4z m-80 -10 c0 -3 -4 -8 -10 -11 -5 -3 -10 -1 -10 4 0
6 5 11 10 11 6 0 10 -2 10 -4z m114 -35 c-2 -3 -12 3 -22 13 -16 17 -16 18 5
5 12 -7 20 -15 17 -18z m42 7 c-9 -5 -14 -13 -11 -19 4 -5 1 -9 -4 -9 -6 0
-11 5 -11 10 0 16 24 39 34 33 5 -3 1 -10 -8 -15z m-286 2 c0 -5 -7 -7 -15 -4
-8 4 -15 8 -15 10 0 2 7 4 15 4 8 0 15 -4 15 -10z m-103 -25 c-7 -13 -14 -20
-15 -15 -2 6 -9 7 -15 3 -7 -3 -3 3 7 15 26 29 37 28 23 -3z m61 1 c-2 -1 -11
-8 -21 -15 -15 -12 -17 -12 -11 4 6 14 4 16 -6 10 -8 -5 -11 -4 -7 3 4 5 16 8
27 5 12 -3 19 -6 18 -7z m39 -18 c-3 -8 -6 -5 -6 6 -1 11 2 17 5 13 3 -3 4
-12 1 -19z m183 7 c0 -8 -4 -15 -8 -15 -5 0 -9 7 -9 15 0 8 4 15 9 15 4 0 8
-7 8 -15z m34 0 c-4 -8 -8 -15 -10 -15 -2 0 -4 7 -4 15 0 8 4 15 10 15 5 0 7
-7 4 -15z m-2066 -289 c2 -2 -28 -66 -65 -142 l-68 -139 -684 -3 c-548 -2
-682 0 -674 10 5 7 18 33 27 58 41 104 100 219 114 222 20 4 1346 -2 1350 -6z
m2690 -16 c-7 -10 -14 -18 -15 -16 -6 6 9 36 18 36 5 0 4 -9 -3 -20z m49 14
c-3 -3 -12 -4 -19 -1 -8 3 -5 6 6 6 11 1 17 -2 13 -5z m312 -139 l-1 -145
-121 1 c-67 0 -117 3 -112 7 6 4 23 26 38 50 33 51 51 74 95 118 35 37 40 49
16 40 -19 -7 -47 12 -38 25 9 15 24 10 18 -6 -4 -8 -1 -15 5 -15 6 0 11 4 11
8 0 5 10 8 21 8 12 -1 24 5 26 12 3 7 -5 12 -22 12 -15 0 -24 4 -20 10 3 6 -1
10 -10 10 -9 0 -13 -4 -10 -10 3 -5 1 -10 -4 -10 -6 0 -11 5 -11 10 0 6 -19
10 -41 10 -34 0 -39 -2 -30 -14 9 -11 6 -13 -15 -10 -14 1 -29 6 -32 10 -4 4
1 4 11 1 9 -4 17 -2 17 3 0 5 -19 11 -42 13 -24 2 23 4 105 5 l148 2 -2 -145z
m455 118 c21 -42 106 -243 106 -252 0 -4 -7 -8 -15 -8 -8 0 -12 4 -9 9 8 12
-10 10 -24 -4 -9 -9 -12 -9 -12 0 0 7 -8 12 -17 12 -13 0 -15 -2 -5 -9 8 -5
-1 -8 -24 -9 -21 -1 -44 4 -53 11 -12 9 -13 9 -7 0 4 -8 1 -13 -8 -13 -9 0
-16 6 -16 13 0 8 -4 7 -10 -3 -9 -13 -11 -13 -21 0 -8 11 -12 12 -16 3 -3 -9
-33 -13 -99 -13 l-94 0 0 145 0 145 155 0 154 0 15 -27z m-737 -9 c3 -8 -2
-23 -11 -32 -15 -15 -16 -15 -16 0 0 9 6 19 13 21 9 4 8 8 -3 16 -11 8 -11 11
-2 11 7 0 15 -7 19 -16z m31 -32 c-6 -7 -13 -10 -17 -7 -3 3 1 10 8 14 9 6 10
11 2 15 -6 4 -11 12 -11 19 0 6 6 2 14 -9 10 -13 11 -23 4 -32z m-164 22 c3
-8 2 -12 -4 -9 -6 3 -10 10 -10 16 0 14 7 11 14 -7z m267 -12 c-11 -4 -11 -6
0 -14 10 -7 8 -8 -6 -3 -39 13 -67 16 -60 5 3 -5 1 -10 -5 -10 -7 0 -10 6 -7
13 2 6 16 12 30 11 15 -1 27 3 27 7 0 5 8 5 17 2 12 -5 13 -8 4 -11z m-176
-30 c-6 -8 -35 12 -35 24 0 11 4 10 18 -3 10 -10 18 -19 17 -21z m-45 -2 c0
-5 -5 -10 -11 -10 -5 0 -7 5 -4 10 3 6 8 10 11 10 2 0 4 -4 4 -10z m78 -10
c-7 -10 -14 -17 -17 -15 -4 4 18 35 25 35 2 0 -1 -9 -8 -20z m122 10 c0 -5 -5
-10 -11 -10 -5 0 -7 5 -4 10 3 6 8 10 11 10 2 0 4 -4 4 -10z m55 0 c3 -6 -4
-10 -17 -10 -18 0 -20 2 -8 10 19 12 18 12 25 0z m-365 -10 c0 -5 -5 -10 -11
-10 -5 0 -7 5 -4 10 3 6 8 10 11 10 2 0 4 -4 4 -10z m120 -37 c-11 -17 -11
-17 -6 0 3 10 6 24 7 30 0 9 2 9 5 0 3 -7 0 -20 -6 -30z m121 20 c-9 -19 -11
-24 -11 -45 0 -8 -5 -6 -11 4 -7 13 -5 23 8 38 21 25 27 26 14 3z m56 -7 c4
-4 4 -7 -2 -6 -24 5 -34 -1 -28 -17 4 -14 3 -15 -6 -7 -6 6 -9 18 -6 26 6 16
28 18 42 4z m-337 -15 c-5 -11 -15 -23 -21 -27 -6 -3 -3 5 6 20 20 30 30 35
15 7z m195 9 c3 -5 1 -10 -4 -10 -6 0 -11 5 -11 10 0 6 2 10 4 10 3 0 8 -4 11
-10z m-85 -11 c0 -5 5 -7 10 -4 6 3 10 2 10 -4 0 -18 -15 -18 -32 1 -15 15
-15 18 -3 18 8 0 15 -5 15 -11z m-57 -34 c-3 -9 -8 -14 -10 -11 -3 3 -2 9 2
15 9 16 15 13 8 -4z m-23 1 c0 -2 -8 -10 -17 -17 -16 -13 -17 -12 -4 4 13 16
21 21 21 13z m-43 -22 c0 -9 -5 -10 -19 -3 -10 5 -18 12 -18 14 0 2 8 3 18 2
10 0 19 -7 19 -13z m93 -4 c0 -11 -2 -20 -4 -20 -2 0 -6 9 -9 20 -3 11 -1 20
4 20 5 0 9 -9 9 -20z m200 5 c0 -2 -9 -3 -19 -2 -11 0 -18 5 -15 9 4 6 34 0
34 -7z m-4922 -22 c84 -52 79 -208 -8 -242 -91 -36 -176 1 -200 87 -32 120
103 220 208 155z m4846 -3 c-6 -6 -10 -3 -10 10 0 13 4 16 10 10 7 -7 7 -13 0
-20z m-250 4 c3 -8 2 -12 -4 -9 -6 3 -10 10 -10 16 0 14 7 11 14 -7z m1901
-17 c36 -36 57 -95 48 -137 -13 -65 -100 -118 -168 -102 -68 16 -105 65 -105
138 0 42 5 59 27 84 33 39 55 49 117 49 41 1 52 -3 81 -32z m-1755 4 c0 -5 -7
-12 -16 -15 -14 -5 -15 -4 -4 9 14 17 20 19 20 6z m69 -36 c0 -5 -4 -3 -9 5
-5 8 -9 22 -9 30 0 16 17 -16 18 -35z m-3557 -195 l648 0 -62 -125 -63 -125
-282 0 -282 0 -75 60 -76 60 0 -60 0 -60 -285 0 c-223 0 -283 3 -280 13 2 6
16 62 31 122 14 61 28 114 31 118 3 5 15 6 27 3 11 -3 312 -6 668 -6z m3162
-16 c3 -8 2 -12 -4 -9 -6 3 -10 10 -10 16 0 14 7 11 14 -7z m49 9 c-7 -2 -21
-2 -30 0 -10 3 -4 5 12 5 17 0 24 -2 18 -5z m237 -39 c0 -4 -9 1 -20 11 -11
10 -20 23 -20 28 0 6 9 1 20 -11 11 -12 20 -24 20 -28z m27 29 c3 4 12 2 19
-4 10 -9 15 -7 20 5 5 14 31 16 198 16 l191 0 0 -64 0 -64 -46 1 c-92 1 -188
-75 -208 -164 -12 -55 11 -127 52 -165 73 -68 163 -66 254 3 42 32 47 33 133
33 l90 0 0 -209 0 -209 -60 -4 c-75 -5 -131 -42 -175 -112 -29 -48 -30 -54
-33 -190 l-4 -141 -63 0 c-55 0 -70 -5 -107 -31 -51 -36 -88 -96 -88 -145 0
-42 17 -100 34 -114 7 -5 15 -18 19 -28 4 -10 11 -16 16 -13 5 3 14 -1 21 -9
6 -7 17 -12 23 -9 7 2 32 -2 57 -9 l45 -14 -55 2 c-73 2 -118 25 -160 85 -19
27 -40 49 -46 50 -7 0 -11 8 -10 17 0 10 -5 18 -11 19 -7 1 -21 2 -30 3 -16 1
-16 3 2 13 11 7 22 11 24 9 9 -6 21 26 20 54 -1 24 -2 26 -7 10 -8 -25 -34
-26 -59 -2 -11 9 -23 14 -26 10 -4 -3 -7 0 -7 8 -1 10 -3 9 -11 -3 -7 -12 -6
-24 1 -37 12 -24 13 -34 1 -27 -11 7 -25 -49 -16 -64 3 -5 -1 -10 -9 -10 -14
0 -16 20 -16 143 l0 142 102 -3 c57 -2 154 -1 216 3 l112 7 0 84 0 84 -215 0
-215 0 0 132 0 131 146 -6 c80 -4 238 -4 350 0 l204 6 0 74 0 73 -350 0 -350
0 0 114 0 113 69 7 c38 3 76 3 85 0 13 -5 13 0 4 32 -5 21 -8 60 -6 86 l5 48
-133 0 c-84 0 -134 4 -134 10 0 6 14 24 30 42 17 17 30 34 30 39 0 4 16 24 36
44 28 30 33 40 23 47 -10 6 -6 7 10 3 15 -5 21 -3 17 3 -3 6 0 12 6 15 10 4
11 7 1 18 -10 9 -13 10 -13 1 0 -9 -5 -9 -20 0 -11 7 -20 17 -20 22 0 4 7 3
15 -4 9 -7 18 -10 22 -7z m1062 -20 c25 -96 42 -183 37 -192 -4 -5 0 -12 6
-14 7 -3 -49 -6 -124 -6 l-137 -1 -3 43 -3 42 -65 0 -65 0 -3 -42 -3 -43 -70
0 -69 0 0 125 0 125 245 0 244 0 10 -37z m-1159 17 c0 10 3 11 11 3 9 -9 8
-16 -4 -27 -14 -14 -16 -14 -21 0 -9 25 -7 41 4 24 8 -13 10 -13 10 0z m-134
-11 c4 -8 9 -7 15 2 7 12 10 12 21 0 8 -9 9 -12 1 -7 -6 3 -16 -2 -22 -11 -6
-10 -11 -12 -11 -5 0 6 -5 11 -11 10 -6 -2 -14 3 -16 10 -6 15 13 16 23 1z
m74 7 c0 -3 -4 -8 -10 -11 -5 -3 -10 -1 -10 4 0 6 5 11 10 11 6 0 10 -2 10 -4z
m35 -25 c3 -5 1 -12 -5 -16 -5 -3 -10 1 -10 9 0 18 6 21 15 7z m-294 -28 c-12
-20 -14 -14 -5 12 4 9 9 14 11 11 3 -2 0 -13 -6 -23z m79 7 c0 -5 -2 -10 -4
-10 -2 0 -12 -3 -22 -7 -16 -6 -17 -5 -4 10 17 19 30 22 30 7z m100 -15 c-7
-9 -15 -13 -19 -10 -3 3 1 10 9 15 21 14 24 12 10 -5z m-45 -44 c-6 -5 -25 10
-25 20 0 5 6 4 14 -3 8 -7 12 -15 11 -17z m-35 9 c0 -5 -4 -10 -10 -10 -5 0
-10 5 -10 10 0 6 5 10 10 10 6 0 10 -4 10 -10z m-3 -75 c0 -8 -4 -12 -9 -9 -5
3 -6 10 -3 15 9 13 12 11 12 -6z m-137 -19 c0 -2 -7 -7 -16 -10 -8 -3 -12 -2
-9 4 6 10 25 14 25 6z m-76 -21 c-4 -8 -13 -15 -22 -15 -13 0 -12 3 4 15 24
18 25 18 18 0z m109 -2 c3 -5 -8 -8 -25 -9 -20 -1 -25 2 -16 7 16 11 35 11 41
2z m-3390 -183 l147 0 0 -115 0 -115 -307 0 -306 0 7 111 c3 62 9 116 13 122
4 6 58 8 152 4 80 -4 212 -7 294 -7z m4939 1 c13 -1 18 -15 22 -68 4 -38 9
-90 12 -116 l5 -48 -161 2 -160 1 0 116 0 117 132 -2 c73 -1 141 -2 150 -2z
m-4198 -95 c-53 -111 -58 -172 -21 -227 42 -64 66 -69 310 -69 l219 0 -47 -87
c-26 -48 -58 -104 -71 -125 l-24 -38 -110 0 -110 0 0 44 c0 42 -1 44 -35 50
-20 4 -56 4 -80 0 -43 -6 -44 -7 -47 -48 l-3 -41 -227 -3 -227 -2 2 127 c2
106 5 128 17 129 8 1 88 2 178 3 l162 1 0 80 0 80 -30 -6 c-29 -6 -30 -5 -30
27 0 50 -16 99 -50 152 l-30 47 150 0 149 0 -45 -94z m2716 74 c0 -4 -6 -10
-14 -13 -10 -4 -12 0 -9 14 5 18 23 18 23 -1z m150 -94 l0 -116 -157 0 -158 0
33 23 c17 12 34 30 38 40 3 9 10 17 15 17 5 0 9 5 9 11 0 6 21 35 46 64 25 30
43 58 40 63 -3 5 26 10 64 11 l70 2 0 -115z m-541 82 c-2 -2 -17 -14 -34 -28
l-30 -25 29 32 c16 18 32 31 34 28 3 -3 3 -6 1 -7z m124 -2 c4 -10 1 -13 -8
-9 -8 3 -12 9 -9 14 7 12 11 11 17 -5z m34 -8 c-3 -8 -6 -5 -6 6 -1 11 2 17 5
13 3 -3 4 -12 1 -19z m90 16 c-3 -3 -12 -4 -19 -1 -8 3 -5 6 6 6 11 1 17 -2
13 -5z m-2973 -42 c56 -31 102 -83 111 -127 l6 -30 -18 23 c-10 13 -30 38 -45
56 -15 18 -24 37 -20 41 4 5 2 5 -5 1 -14 -7 -93 39 -93 54 0 15 10 12 64 -18z
m2996 24 c0 -2 -8 -10 -17 -17 -16 -13 -17 -12 -4 4 13 16 21 21 21 13z m45
-14 c-3 -3 -11 0 -18 7 -9 10 -8 11 6 5 10 -3 15 -9 12 -12z m-4417 -138 c67
-40 91 -126 52 -188 -31 -51 -57 -66 -112 -66 -57 0 -108 29 -128 73 -17 39
-8 121 16 148 41 47 124 62 172 33z m6708 -3 c41 -25 78 -100 69 -140 -24
-110 -184 -150 -249 -64 -24 33 -32 104 -16 143 29 70 130 101 196 61z m-5526
-326 c0 -133 -2 -146 -17 -144 -78 7 -157 -35 -198 -105 -45 -77 -26 -175 43
-220 53 -35 83 -40 145 -22 70 20 119 72 136 144 l13 51 229 1 229 1 0 -120
c0 -99 -3 -120 -16 -125 -23 -9 -34 -7 -34 5 0 5 5 7 10 4 6 -3 10 1 10 9 0
13 -14 16 -75 16 -53 0 -75 -4 -75 -12 0 -9 -4 -8 -10 2 -9 13 -11 13 -20 0
-9 -13 -11 -13 -21 0 -9 12 -12 13 -16 1 -4 -10 -7 -11 -13 -1 -6 10 -17 10
-51 0 -24 -6 -66 -15 -94 -20 -27 -4 -45 -8 -40 -9 6 -1 3 -6 -5 -11 -15 -10
110 -16 212 -11 26 2 55 -2 65 -8 13 -7 -115 -10 -443 -11 l-461 0 -21 73
c-11 39 -25 99 -32 132 -6 33 -13 67 -16 75 -3 13 16 15 137 14 l141 -1 9 26
c22 59 46 95 83 122 l39 29 -216 0 c-119 0 -218 4 -221 8 -2 4 -8 55 -11 112
-4 58 -10 109 -12 114 -3 4 -1 11 5 15 6 3 146 8 311 9 l301 4 0 -147z m3460
120 l0 -25 -235 0 c-138 0 -235 4 -235 9 0 5 7 17 16 25 13 14 49 16 235 16
l219 0 0 -25z m1287 15 l83 0 0 -60 c0 -33 -3 -60 -7 -60 -5 0 -8 -28 -8 -62
l0 -63 -148 -5 -149 -5 -26 -39 c-25 -37 -65 -67 -47 -35 5 8 4 11 -1 6 -5 -5
-9 -13 -9 -19 0 -14 -89 -60 -93 -48 -2 5 -11 10 -20 10 -9 0 8 12 38 26 112
52 140 101 148 258 l5 109 75 -7 c41 -3 113 -6 159 -6z m-1287 -220 c0 -25 -4
-30 -25 -30 l-26 0 23 30 c12 17 23 30 25 30 2 0 3 -13 3 -30z m854 -165 c11
-8 15 -15 9 -15 -6 0 -25 -3 -42 -6 -24 -5 -31 -3 -31 9 0 27 35 34 64 12z
m195 -37 c175 -1 251 -4 251 -12 0 -6 5 -4 10 4 13 20 12 6 -1 -66 -7 -32 -19
-68 -28 -78 -9 -11 -10 -16 -3 -12 10 6 11 1 6 -21 -4 -15 -12 -34 -18 -42 -6
-8 -10 -17 -8 -20 2 -3 -1 -6 -7 -7 -7 -2 -7 0 -2 2 5 3 7 17 5 30 -3 16 -1
23 6 19 5 -3 10 1 10 9 0 11 -8 14 -30 11 -33 -4 -51 12 -29 26 18 11 -49 0
-74 -13 -21 -11 -87 0 -87 14 0 6 -11 7 -26 4 -14 -4 -32 -2 -39 4 -9 8 -15 8
-20 0 -3 -5 -16 -10 -28 -10 -26 -1 -62 -26 -62 -43 0 -7 -13 -12 -28 -12 -15
0 -31 -6 -35 -12 -4 -7 -19 -14 -32 -15 -20 -2 -25 1 -24 20 0 12 1 74 2 139
2 113 2 116 21 99 17 -15 48 -17 270 -18z m-5600 3 c8 -5 11 -16 8 -26 -4 -9
-3 -14 3 -10 14 9 12 -7 -4 -27 -7 -9 -31 -21 -54 -27 -39 -8 -42 -7 -43 13
-2 20 -2 20 -6 -1 -4 -22 -10 -24 -68 -27 -11 -1 -27 5 -35 14 -8 9 -14 14
-13 11 2 -2 -3 -11 -10 -20 -11 -14 -10 -14 6 -2 15 12 17 11 17 -2 0 -25 -34
-13 -44 16 -7 18 -6 30 2 40 12 14 121 41 130 33 2 -2 18 2 35 9 38 17 57 18
76 6z m6421 0 c0 -5 -6 -12 -12 -14 -8 -3 -6 -6 5 -6 14 -1 16 -7 12 -28 -5
-28 -5 -28 5 -4 6 14 9 29 7 35 -3 7 11 10 39 7 24 -1 44 -6 44 -10 0 -3 20
-6 44 -6 50 0 76 -18 76 -50 0 -23 -51 -56 -58 -37 -1 5 -12 8 -22 5 -11 -3
-20 -1 -20 3 0 5 -25 10 -56 11 -30 2 -67 8 -82 15 -33 16 -41 54 -15 73 21
17 33 19 33 6z m-4474 -14 c4 -3 -21 -55 -55 -114 l-61 -108 0 102 c0 56 2
108 5 116 4 10 20 13 56 12 27 -1 52 -5 55 -8z m2567 7 l37 -7 0 -138 c0 -77
-4 -139 -9 -139 -4 0 -6 17 -4 38 l4 37 -57 -4 c-49 -3 -56 -1 -51 13 5 12 0
16 -23 16 -24 0 -28 -3 -23 -17 3 -10 3 -15 -1 -11 -7 6 -14 30 -15 56 -1 6
-9 12 -18 12 -15 0 -16 -2 -3 -10 12 -8 11 -10 -7 -10 -13 0 -23 6 -23 13 0 6
-9 26 -21 42 -11 17 -19 23 -18 15 4 -24 -11 -60 -26 -60 -8 0 -20 -9 -28 -20
-8 -11 -17 -17 -22 -12 -4 4 -5 -1 -2 -10 4 -12 2 -15 -9 -11 -7 3 -14 0 -14
-5 0 -6 6 -12 13 -15 6 -2 1 -2 -13 0 -24 3 -24 3 -6 -12 19 -15 19 -15 -2
-15 -23 0 -32 -19 -9 -21 43 -3 261 2 267 6 5 3 11 2 14 -3 7 -12 1 -13 -184
-18 l-165 -5 22 23 c13 13 43 48 68 78 26 30 50 56 56 56 5 1 14 2 19 3 6 0
10 6 10 12 0 8 -5 8 -15 -1 -25 -21 -17 0 14 35 16 19 32 31 35 28 3 -4 6 0 6
9 0 18 35 52 47 45 5 -3 15 -2 23 4 17 10 78 12 133 3z m1040 -171 c-13 -2
-33 -2 -45 0 -13 2 -3 4 22 4 25 0 35 -2 23 -4z m17 -31 c0 -4 -18 -6 -40 -4
-22 2 -40 6 -40 8 0 2 18 4 40 4 22 0 40 -3 40 -8z m-4005 -42 c3 -5 1 -10 -4
-10 -6 0 -10 -3 -10 -7 3 -21 -2 -33 -16 -33 -18 0 -19 12 -3 28 9 9 9 12 0
12 -7 0 -12 5 -12 10 0 6 9 10 19 10 11 0 23 -4 26 -10z m4040 0 c3 -5 1 -10
-4 -10 -6 0 -11 5 -11 10 0 6 2 10 4 10 3 0 8 -4 11 -10z m-1158 -6 c-3 -3
-12 -4 -19 -1 -8 3 -5 6 6 6 11 1 17 -2 13 -5z m867 -15 c-12 -5 8 -8 51 -9
39 0 81 -1 95 -2 14 -1 40 0 57 3 18 2 34 0 35 -6 3 -9 -2 -10 -149 -13 -66
-1 -96 -6 -106 -17 -12 -11 -17 -12 -20 -2 -3 6 -6 2 -6 -11 -1 -15 -5 -21
-13 -16 -7 5 -9 2 -5 -9 4 -11 2 -14 -8 -11 -12 5 -9 13 11 40 15 19 31 31 37
27 5 -3 7 -1 4 5 -11 17 3 41 21 35 13 -6 13 -8 -4 -14z m-3644 -1 c0 -9 -17
-13 -50 -13 -61 0 -66 12 -7 18 23 2 45 4 50 5 4 1 7 -4 7 -10z m3194 -3 c-4
-11 -19 -15 -53 -13 l-46 1 40 4 c22 3 44 9 50 14 13 13 15 11 9 -6z m751 -5
c4 -6 -5 -10 -20 -10 -15 0 -24 4 -20 10 3 6 12 10 20 10 8 0 17 -4 20 -10z
m132 -14 c5 -5 -1 -6 -12 -3 -11 4 -39 7 -62 9 -23 1 -40 5 -38 8 5 9 103 -4
112 -14z m-537 -86 c-8 -5 -19 -10 -25 -10 -5 0 -3 5 5 10 8 5 20 10 25 10 6
0 3 -5 -5 -10z m-4537 -117 c-5 -12 -7 -12 -14 -1 -13 20 -11 28 5 22 8 -3 12
-12 9 -21z m4530 20 c-73 -2 -193 -2 -265 0 -73 1 -14 3 132 3 146 0 205 -2
133 -3z m-3533 -53 l0 -50 -37 0 c-44 0 -146 -46 -185 -82 -32 -31 -74 -111
-83 -160 -4 -23 -1 -57 9 -91 19 -67 82 -130 148 -147 55 -15 136 -6 185 21
l38 21 -25 -21 c-31 -27 -75 -51 -103 -57 -60 -13 -116 -20 -112 -14 2 4 -18
17 -45 29 -28 13 -50 26 -50 31 0 5 -8 11 -19 15 -25 7 -68 90 -76 145 -3 25
-1 67 5 94 9 42 8 50 -7 62 -10 8 -13 14 -8 13 25 -3 34 2 28 18 -4 10 -2 14
4 10 6 -4 10 1 9 11 0 9 5 16 12 14 8 -1 11 2 8 6 -3 5 4 18 15 28 11 10 18
23 15 30 -7 18 58 73 95 79 17 3 37 1 45 -6 17 -14 19 -2 2 15 -7 7 -38 13
-68 15 -30 1 -113 5 -185 10 -121 7 -112 8 128 9 l257 2 0 -50z m3072 -75 c0
-94 3 -117 15 -122 12 -5 12 -7 2 -14 -7 -4 -16 -6 -20 -3 -4 2 -8 63 -8 136
-1 73 1 129 4 126 4 -4 7 -59 7 -123z m968 108 c0 -21 -15 -23 -28 -3 -10 16
-8 18 8 17 11 -1 20 -7 20 -14z m-4280 -23 c0 -5 -4 -10 -10 -10 -5 0 -10 5
-10 10 0 6 5 10 10 10 6 0 10 -4 10 -10z m-742 -25 c-3 -3 -9 2 -12 12 -6 14
-5 15 5 6 7 -7 10 -15 7 -18z m3862 -11 c0 -33 -2 -36 -24 -30 -30 7 -122 -17
-185 -48 -91 -47 -165 -160 -165 -256 -1 -151 113 -259 263 -249 31 3 51 0 51
-6 0 -6 -12 -12 -27 -13 -16 -1 -30 -7 -31 -12 -2 -6 -8 -7 -14 -4 -6 4 -14 0
-19 -7 -6 -10 -9 -11 -9 -1 0 7 -13 12 -32 12 -63 1 -142 49 -182 112 -10 15
-22 26 -26 23 -4 -3 -7 1 -7 8 1 6 -5 37 -12 68 -11 46 -11 68 -1 120 7 35 13
72 13 81 1 9 4 15 8 12 4 -2 12 9 18 25 17 41 88 106 148 135 62 31 144 49
190 40 26 -5 33 -3 33 10 0 9 2 16 5 16 3 0 5 -16 5 -36z m1165 6 c-4 -12 -9
-19 -12 -17 -3 3 -2 15 2 27 4 12 9 19 12 17 3 -3 2 -15 -2 -27z m-4994 -31
c12 -19 12 -76 0 -63 -5 5 -16 25 -24 45 -13 33 -13 37 0 35 8 -1 19 -9 24
-17z m-648 -4 c34 -14 85 -65 89 -88 9 -72 -9 -136 -42 -144 -11 -3 -17 -9
-14 -14 3 -5 -3 -6 -13 -2 -14 6 -12 9 15 20 36 15 43 24 11 16 -28 -8 -39 12
-34 60 3 29 0 39 -12 44 -9 4 -19 1 -21 -5 -2 -7 -8 -10 -13 -6 -5 3 -9 -1 -9
-8 0 -12 -38 62 -40 80 -2 13 -28 22 -44 16 -18 -7 -22 -24 -6 -24 6 0 10 -4
10 -10 0 -5 -4 -10 -10 -10 -20 0 -45 -36 -47 -68 -1 -17 2 -32 6 -32 5 0 12
-10 16 -22 6 -21 8 -21 12 -4 3 10 0 23 -6 29 -6 6 -11 16 -11 21 0 6 7 0 16
-12 9 -13 14 -31 12 -40 -7 -25 17 -43 65 -50 37 -5 38 -6 17 -14 -15 -5 -27
-5 -34 2 -5 5 -17 10 -26 10 -16 0 -33 17 -62 62 -16 23 -17 42 -9 116 0 7 6
10 11 7 6 -3 10 3 10 13 0 24 16 38 66 56 50 19 55 19 97 1z m5625 -10 c-3 -3
-9 2 -12 12 -6 14 -5 15 5 6 7 -7 10 -15 7 -18z m732 7 c44 -20 43 -19 35 -31
-3 -6 -12 -8 -18 -4 -19 12 -97 31 -91 22 3 -5 -7 -11 -21 -15 -14 -3 -22 -11
-18 -17 4 -6 0 -8 -9 -4 -17 6 -48 -21 -48 -41 0 -7 -4 -12 -10 -12 -30 0 4
62 51 92 45 30 80 32 129 10z m10 -42 c10 -6 21 -5 27 1 12 12 38 -24 49 -66
6 -22 4 -26 -7 -20 -12 7 -12 6 -1 -7 7 -8 9 -23 6 -33 -5 -13 -9 -14 -15 -3
-6 9 -9 6 -9 -12 l-1 -25 -10 23 c-6 17 -4 32 6 52 13 25 13 29 1 24 -8 -3
-17 -13 -20 -22 -2 -10 -3 6 -1 33 3 37 2 44 -4 25 -8 -23 -9 -23 -10 -3 -1
25 -36 36 -89 28 -18 -2 -30 0 -27 4 7 12 84 12 105 1z m-4040 -13 c0 -13 -37
-86 -50 -100 -4 -5 -7 3 -7 17 0 14 3 26 8 26 17 0 9 29 -11 43 -14 10 -58 15
-152 16 -73 1 -135 4 -137 7 -3 3 75 4 172 4 129 -1 177 -5 177 -13z m-553
-89 c-2 -13 -4 -3 -4 22 0 25 2 35 4 23 2 -13 2 -33 0 -45z m4401 -15 c0 -10
2 -27 6 -38 4 -11 0 -8 -9 8 -9 15 -13 32 -10 37 9 15 14 12 13 -7z m29 -65
c-3 -8 -6 -5 -6 6 -1 11 2 17 5 13 3 -3 4 -12 1 -19z m-6287 2 c-8 -5 -19 -10
-25 -10 -5 0 -3 5 5 10 8 5 20 10 25 10 6 0 3 -5 -5 -10z m6385 0 c-3 -5 -12
-10 -18 -10 -7 0 -6 4 3 10 19 12 23 12 15 0z m105 6 c0 -2 -7 -9 -15 -16 -13
-11 -14 -10 -9 4 5 14 24 23 24 12z m-6460 -16 c-8 -5 -19 -10 -25 -10 -5 0
-3 5 5 10 8 5 20 10 25 10 6 0 3 -5 -5 -10z m6306 -28 c-4 -3 -14 2 -24 12
-16 18 -16 18 6 6 13 -6 21 -14 18 -18z m-5416 -92 c0 -5 -5 -10 -11 -10 -5 0
-7 5 -4 10 3 6 8 10 11 10 2 0 4 -4 4 -10z m1360 5 c0 -13 -42 -26 -54 -16 -7
6 -66 12 -132 14 -118 3 -117 3 34 5 83 1 152 0 152 -3z m2768 -2 c-32 -2 -86
-2 -120 0 -35 2 -9 3 57 3 66 0 94 -1 63 -3z m477 -3 c-4 -6 -11 -8 -16 -5 -5
3 -6 0 -4 -8 3 -7 -8 -31 -25 -52 -18 -22 -30 -31 -30 -22 0 9 5 19 10 22 17
10 11 28 -6 21 -14 -6 -15 -4 -4 9 10 13 15 13 21 3 4 -7 12 -9 16 -4 15 14
-28 34 -63 30 -19 -2 -43 0 -52 6 -12 7 8 9 71 10 57 0 86 -4 82 -10z m-3708
-19 c0 -11 -5 -18 -9 -15 -4 3 -5 11 -1 19 7 21 12 19 10 -4z m420 -65 c-17
-36 -33 -64 -34 -63 -1 2 5 22 13 46 8 23 12 46 9 52 -3 5 1 6 9 3 11 -4 16 0
16 10 0 9 4 16 10 16 5 0 -5 -29 -23 -64z m-432 34 c3 -6 -1 -7 -9 -4 -12 5
-16 0 -16 -17 0 -17 -3 -20 -12 -11 -8 8 -8 15 2 27 14 17 26 19 35 5z m-860
-10 c3 -5 1 -10 -4 -10 -6 0 -11 5 -11 10 0 6 2 10 4 10 3 0 8 -4 11 -10z
m3752 -12 c-3 -8 -6 -5 -6 6 -1 11 2 17 5 13 3 -3 4 -12 1 -19z m-20 -22 c0
-7 -9 -18 -19 -25 -23 -14 -23 -7 -1 19 21 24 20 23 20 6z m773 -20 c0 -2 -8
-10 -17 -17 -16 -13 -17 -12 -4 4 13 16 21 21 21 13z m-4437 -31 c-3 -9 -8
-14 -10 -11 -3 3 -2 9 2 15 9 16 15 13 8 -4z m3617 5 c0 -5 -5 -10 -11 -10 -5
0 -7 5 -4 10 3 6 8 10 11 10 2 0 4 -4 4 -10z m-10 -26 c0 -2 -9 -4 -21 -4 -11
0 -18 4 -14 10 5 8 35 3 35 -6z m-3575 -26 c5 4 5 1 1 -6 -6 -10 -11 -10 -22
-1 -8 6 -14 17 -14 23 0 6 7 3 14 -6 7 -10 17 -14 21 -10z m64 -102 c-3 -3
-11 5 -18 17 -13 21 -12 21 5 5 10 -10 16 -20 13 -22z m4211 11 c0 -2 -9 -12
-19 -21 -14 -13 -21 -14 -27 -5 -4 7 -3 10 3 6 6 -4 16 0 23 8 12 14 20 19 20
12z m-50 -60 c0 -2 -12 -14 -27 -28 l-28 -24 24 28 c23 25 31 32 31 24z
m-3177 -42 c-3 -9 -8 -14 -10 -11 -3 3 -2 9 2 15 9 16 15 13 8 -4z m-848 -56
c11 -16 1 -19 -13 -3 -7 8 -8 14 -3 14 5 0 13 -5 16 -11z m-668 -5 c-3 -3 -12
-4 -19 -1 -8 3 -5 6 6 6 11 1 17 -2 13 -5z m-26 -21 c13 -16 12 -17 -3 -4 -17
13 -22 21 -14 21 2 0 10 -8 17 -17z m1501 -5 c-7 -7 -12 -8 -12 -2 0 6 3 14 7
17 3 4 9 5 12 2 2 -3 -1 -11 -7 -17z m-1662 -72 c0 -3 -4 -8 -10 -11 -5 -3
-10 -1 -10 4 0 6 5 11 10 11 6 0 10 -2 10 -4z m-81 -45 c-15 -13 -19 -20 -10
-21 8 0 11 -3 8 -7 -4 -3 1 -16 10 -27 13 -15 10 -14 -10 3 -15 14 -27 28 -27
32 0 11 42 50 48 44 3 -2 -6 -13 -19 -24z m4731 15 c0 -2 -8 -10 -17 -17 -16
-13 -17 -12 -4 4 13 16 21 21 21 13z m997 -30 c0 -8 -6 -12 -15 -9 -11 5 -11
7 0 14 7 5 13 9 14 9 0 0 1 -6 1 -14z m117 -21 c-4 -9 -15 -20 -25 -25 -28
-16 -37 -11 -9 5 14 8 21 15 15 15 -5 0 -3 5 5 10 20 13 20 13 14 -5z m-5756
-1 c-4 -3 -8 -4 -11 -2 -3 2 -14 -6 -26 -16 -12 -11 -21 -15 -21 -10 0 16 23
34 44 34 10 0 17 -3 14 -6z m1582 -4 c0 -5 -5 -10 -11 -10 -5 0 -7 5 -4 10 3
6 8 10 11 10 2 0 4 -4 4 -10z m2674 -238 c2 -4 -4 -8 -14 -8 -10 0 -16 4 -14
8 3 4 9 8 14 8 5 0 11 -4 14 -8z m837 -23 c19 -7 36 -13 38 -15 2 -2 -9 -39
-24 -83 l-28 -80 -46 0 c-84 1 -148 -42 -177 -116 -57 -149 87 -275 233 -204
47 23 68 48 88 107 15 44 23 46 133 37 l84 -7 -6 -41 c-16 -100 -125 -235
-232 -287 -42 -21 -64 -24 -154 -25 -99 0 -109 2 -172 33 -128 63 -192 170
-192 322 0 104 27 172 101 251 92 99 244 145 354 108z m-4214 -81 c30 -29 53
-61 53 -73 0 -11 -9 -74 -20 -140 -30 -183 -45 -171 133 -109 83 30 156 54
161 54 4 0 23 -12 40 -27 17 -16 42 -35 56 -44 l24 -16 -94 -154 c-51 -85
-131 -218 -178 -296 -46 -79 -87 -143 -92 -143 -10 0 -97 65 -137 103 l-32 30
38 51 c64 88 163 237 159 242 -2 2 -64 -13 -137 -32 -72 -20 -134 -34 -137
-32 -2 3 2 61 11 128 8 68 12 126 9 129 -3 3 -33 -26 -67 -64 -34 -38 -89 -98
-122 -132 l-60 -63 -75 75 -74 74 239 244 c132 134 242 245 245 246 2 0 28
-22 57 -51z m3268 43 c3 -5 2 -12 -3 -15 -5 -3 -9 1 -9 9 0 17 3 19 12 6z
m-290 -161 c-3 -5 -12 -10 -18 -10 -7 0 -6 4 3 10 19 12 23 12 15 0z m-45 -20
c-8 -5 -19 -10 -25 -10 -5 0 -3 5 5 10 8 5 20 10 25 10 6 0 3 -5 -5 -10z m-40
-14 c0 -2 -7 -7 -16 -10 -8 -3 -12 -2 -9 4 6 10 25 14 25 6z m-357 -113 c-7
-2 -19 -2 -25 0 -7 3 -2 5 12 5 14 0 19 -2 13 -5z m-96 -19 c-3 -3 -12 -4 -19
-1 -8 3 -5 6 6 6 11 1 17 -2 13 -5z m-604 -41 c-7 -2 -19 -2 -25 0 -7 3 -2 5
12 5 14 0 19 -2 13 -5z m1452 -423 c70 -157 133 -300 140 -318 l14 -32 -57
-29 c-31 -16 -74 -36 -94 -44 l-37 -15 -29 62 c-51 109 -255 596 -251 599 18
14 176 72 181 68 4 -3 64 -134 133 -291z m-2271 29 c-87 -315 -87 -323 -36
-380 34 -38 98 -49 154 -26 61 26 77 61 144 324 21 84 44 153 49 153 6 0 48
-11 95 -24 71 -20 85 -27 82 -42 -12 -84 -89 -389 -108 -429 -31 -67 -87 -122
-154 -154 -48 -23 -67 -26 -160 -26 -95 1 -110 3 -158 28 -118 62 -182 151
-189 267 l-5 65 79 96 c119 147 238 286 241 284 2 -2 -13 -63 -34 -136z m1431
20 c86 -27 92 -32 72 -61 -9 -12 -35 -45 -59 -71 l-43 -49 -62 16 c-72 19 -99
20 -142 5 -22 -8 -31 -17 -31 -34 0 -29 9 -32 156 -54 136 -21 184 -40 219
-85 66 -88 49 -205 -43 -288 -22 -20 -51 -42 -63 -49 -74 -39 -216 -50 -329
-24 -63 15 -140 43 -140 52 0 7 36 51 82 101 l41 45 67 -17 c110 -26 202 -16
215 25 10 30 -11 47 -63 54 -203 25 -247 37 -296 83 -114 107 -47 307 119 355
33 9 71 19 85 21 44 7 153 -6 215 -25z"/>
<path d="M6630 7259 c0 -5 6 -9 13 -9 9 0 8 -3 -2 -9 -7 -5 -9 -11 -4 -14 5
-3 14 3 20 13 10 15 9 19 -8 23 -10 3 -19 1 -19 -4z"/>
<path d="M7010 6316 c0 -2 7 -6 15 -10 8 -3 15 -1 15 4 0 6 -7 10 -15 10 -8 0
-15 -2 -15 -4z"/>
<path d="M6638 4603 c7 -3 16 -2 19 1 4 3 -2 6 -13 5 -11 0 -14 -3 -6 -6z"/>
<path d="M6686 4501 c-4 -7 -5 -15 -2 -18 9 -9 19 4 14 18 -4 11 -6 11 -12 0z"/>
<path d="M6721 4494 c0 -11 3 -14 6 -6 3 7 2 16 -1 19 -3 4 -6 -2 -5 -13z"/>
<path d="M2456 5247 c3 -10 9 -15 12 -12 3 3 0 11 -7 18 -10 9 -11 8 -5 -6z"/>
<path d="M7678 5253 c7 -3 16 -2 19 1 4 3 -2 6 -13 5 -11 0 -14 -3 -6 -6z"/>
<path d="M1667 5019 c7 -7 15 -10 18 -7 3 3 -2 9 -12 12 -14 6 -15 5 -6 -5z"/>
<path d="M1760 5020 c-9 -6 -10 -10 -3 -10 6 0 15 5 18 10 8 12 4 12 -15 0z"/>
<path d="M3185 4440 c3 -5 8 -10 11 -10 2 0 4 5 4 10 0 6 -5 10 -11 10 -5 0
-7 -4 -4 -10z"/>
<path d="M2455 4430 c3 -5 8 -10 11 -10 2 0 4 5 4 10 0 6 -5 10 -11 10 -5 0
-7 -4 -4 -10z"/>
<path d="M2536 4431 c-3 -5 -15 -7 -26 -4 -25 7 -26 -12 -2 -26 10 -6 12 -11
4 -11 -7 0 -11 -4 -7 -9 3 -5 -5 -12 -17 -14 -13 -2 -2 -5 23 -6 43 -1 47 1
52 26 8 41 -11 71 -27 44z m22 -23 c-6 -18 -28 -21 -28 -4 0 9 7 16 16 16 9 0
14 -5 12 -12z"/>
<path d="M3010 4426 c0 -2 7 -7 16 -10 8 -3 12 -2 9 4 -6 10 -25 14 -25 6z"/>
<path d="M2590 4414 c0 -3 7 -12 15 -21 8 -8 13 -19 10 -24 -4 -5 18 -9 49 -9
31 0 56 5 56 10 0 6 14 10 32 10 24 0 29 3 20 12 -9 9 -18 9 -37 0 -39 -18
-89 -15 -113 8 -21 20 -32 25 -32 14z"/>
<path d="M2637 4403 c6 -16 79 -17 89 -1 4 7 3 8 -4 4 -7 -4 -12 -2 -12 4 0 6
-16 10 -39 9 -27 -2 -37 -7 -34 -16z"/>
<path d="M3148 4403 c6 -2 18 -2 25 0 6 3 1 5 -13 5 -14 0 -19 -2 -12 -5z"/>
<path d="M2570 4376 c0 -9 7 -16 16 -16 9 0 14 5 12 12 -6 18 -28 21 -28 4z"/>
<path d="M3040 4381 c0 -5 -10 -12 -22 -14 -15 -3 -10 -5 13 -6 26 -1 36 3 36
14 0 8 -6 15 -14 15 -7 0 -13 -4 -13 -9z"/>
<path d="M7280 4490 c0 -5 7 -10 16 -10 8 0 12 5 9 10 -3 6 -10 10 -16 10 -5
0 -9 -4 -9 -10z"/>
<path d="M7513 4483 c9 -2 25 -2 35 0 9 3 1 5 -18 5 -19 0 -27 -2 -17 -5z"/>
<path d="M1650 4589 c0 -5 5 -7 10 -4 6 3 10 8 10 11 0 2 -4 4 -10 4 -5 0 -10
-5 -10 -11z"/>
<path d="M8331 4604 c0 -11 3 -14 6 -6 3 7 2 16 -1 19 -3 4 -6 -2 -5 -13z"/>
<path d="M8351 4574 c0 -11 3 -14 6 -6 3 7 2 16 -1 19 -3 4 -6 -2 -5 -13z"/>
<path d="M6215 4600 c3 -5 8 -10 11 -10 2 0 4 5 4 10 0 6 -5 10 -11 10 -5 0
-7 -4 -4 -10z"/>
<path d="M6197 4577 c-6 -15 28 -17 40 -1 5 5 4 6 -1 2 -5 -4 -15 -3 -21 2 -9
7 -14 6 -18 -3z"/>
<path d="M6260 4470 c0 -5 9 -10 20 -10 11 0 20 5 20 10 0 6 -9 10 -20 10 -11
0 -20 -4 -20 -10z"/>
<path d="M6328 4443 c6 -2 18 -2 25 0 6 3 1 5 -13 5 -14 0 -19 -2 -12 -5z"/>
<path d="M3468 4133 c12 -2 30 -2 40 0 9 3 -1 5 -23 4 -22 0 -30 -2 -17 -4z"/>
<path d="M3291 4066 c-8 -10 -9 -16 -1 -21 5 -3 10 -2 10 4 0 6 8 8 18 5 10
-4 13 -2 7 3 -5 4 -13 12 -16 16 -3 4 -12 1 -18 -7z"/>
<path d="M2571 4065 c1 -19 18 -51 18 -35 0 8 -4 22 -9 30 -5 8 -9 11 -9 5z"/>
<path d="M1945 4030 c3 -5 8 -10 11 -10 2 0 4 5 4 10 0 6 -5 10 -11 10 -5 0
-7 -4 -4 -10z"/>
<path d="M1901 4027 c2 -1 13 -9 24 -17 19 -14 19 -14 6 3 -7 9 -18 17 -24 17
-6 0 -8 -1 -6 -3z"/>
<path d="M8149 4013 c-13 -16 -12 -17 4 -4 16 13 21 21 13 21 -2 0 -10 -8 -17
-17z"/>
</g>
</svg>
